Coordinates
version=1
nRows=19
nColumns=24
inDegrees=yes

Units are S.I. units (second, meters, Newtons, ...)
Angles are in degrees.

endheader
time	pelvis_tilt	pelvis_list	pelvis_rotation	pelvis_tx	pelvis_ty	pelvis_tz	hip_flexion_r	hip_adduction_r	hip_rotation_r	knee_angle_r	ankle_angle_r	subtalar_angle_r	mtp_angle_r	hip_flexion_l	hip_adduction_l	hip_rotation_l	knee_angle_l	ankle_angle_l	subtalar_angle_l	mtp_angle_l	lumbar_extension	lumbar_bending	lumbar_rotation
      5.73500000	     42.04950486	     -1.98954397	      0.89835464	      0.10427352	      0.67556900	     -0.24273880	    -37.29499044	      4.33714244	     -1.91813400	    -11.95245389	     18.01987474	      6.95481627	      0.00000000	    -22.66431152	     -4.88724274	    -10.02338321	    -67.24224385	      7.23841397	     -2.58615107	      0.00000000	    -66.00120524	      6.47389914	     -3.49469768
      5.74000000	     41.96642522	     -2.10304552	      0.42364156	      0.10899376	      0.67592691	     -0.24270333	    -37.83128484	      4.09464760	     -1.63930289	    -11.60407467	     18.28185117	      7.25021646	      0.00000000	    -21.98659083	     -4.64856290	    -10.51997335	    -66.56595485	      7.91236323	     -2.09088734	      0.00000000	    -65.97600929	      6.26454054	     -3.28190833
      5.74500000	     41.88406374	     -2.20244557	     -0.01377455	      0.11368105	      0.67622138	     -0.24268647	    -38.36369168	      3.85979108	     -1.41581752	    -11.25749666	     18.51507377	      7.49417138	      0.00000000	    -21.31417716	     -4.42657478	    -10.97992715	    -65.82342522	      8.55274095	     -1.62747696	      0.00000000	    -65.96133369	      6.06150339	     -3.09305247
      5.75000000	     41.86283448	     -2.36130743	     -0.53129454	      0.11829845	      0.67650531	     -0.24268431	    -38.93177103	      3.60666662	     -1.11183378	    -10.95193841	     18.74334989	      7.75968255	      0.00000000	    -20.76694441	     -4.23521490	    -11.55069285	    -64.95882724	      9.17761029	     -1.23901149	      0.00000000	    -66.03655039	      5.83854168	     -2.76361876
      5.75500000	     41.74319247	     -2.39963987	     -0.82928898	      0.12297860	      0.67665235	     -0.24272333	    -39.42854553	      3.40841363	     -1.03133258	    -10.59524382	     18.95910498	      7.91938032	      0.00000000	    -20.04248094	     -4.02960297	    -11.82155903	    -64.10691706	      9.71111595	     -0.76484475	      0.00000000	    -65.98131053	      5.70164064	     -2.70718950
      5.76000000	     41.66486596	     -2.49678100	     -1.18402003	      0.12761948	      0.67675219	     -0.24274065	    -39.95023299	      3.21112686	     -0.90272426	    -10.26839987	     19.22721512	      8.19766292	      0.00000000	    -19.40946070	     -3.87349364	    -12.17294220	    -63.16770435	     10.23081853	     -0.31023114	      0.00000000	    -65.98857938	      5.54110102	     -2.54935999
      5.76500000	     41.61465592	     -2.60784775	     -1.55016208	      0.13224192	      0.67681402	     -0.24275397	    -40.49562096	      3.01305714	     -0.74927277	     -9.94894801	     19.49201516	      8.44843001	      0.00000000	    -18.84033890	     -3.72985816	    -12.52770838	    -62.13681383	     10.69875314	      0.07264663	      0.00000000	    -66.03274188	      5.36906012	     -2.36027040
      5.77000000	     41.52645544	     -2.67875597	     -1.80861781	      0.13684729	      0.67679579	     -0.24285684	    -40.98373305	      2.85336069	     -0.70661541	     -9.66472003	     19.69439653	      8.58323538	      0.00000000	    -18.21905443	     -3.58687896	    -12.75166291	    -61.05087606	     11.13452451	      0.38225140	      0.00000000	    -66.04072407	      5.27480191	     -2.22056046
      5.77500000	     41.56930158	     -2.83551443	     -2.21820279	      0.14143979	      0.67679105	     -0.24283538	    -41.61885615	      2.64683885	     -0.48938629	     -9.36462932	     20.01368294	      8.89195533	      0.00000000	    -17.83443906	     -3.48885943	    -13.16170398	    -59.83767817	     11.50091278	      0.65921863	      0.00000000	    -66.19442610	      5.08152579	     -1.96864401
      5.78000000	     41.46116035	     -2.89269379	     -2.38906123	      0.14606062	      0.67663417	     -0.24291040	    -42.08913146	      2.54417962	     -0.46410166	     -9.08116151	     20.22771055	      8.96303837	      0.00000000	    -17.21407217	     -3.38972112	    -13.26969583	    -58.63756989	     11.80758569	      0.94136553	      0.00000000	    -66.17639959	      5.01045976	     -1.86763224
      5.78500000	     41.40870827	     -2.99418409	     -2.64638674	      0.15067545	      0.67645005	     -0.24291566	    -42.61949859	      2.40610331	     -0.38310493	     -8.79202563	     20.53327913	      9.19095954	      0.00000000	    -16.71619464	     -3.31397497	    -13.46982896	    -57.34378124	     12.06201182	      1.22090876	      0.00000000	    -66.23150322	      4.88974857	     -1.72822434
      5.79000000	     41.41699886	     -3.11230812	     -2.91030221	      0.15527727	      0.67625028	     -0.24294770	    -43.20749435	      2.26557740	     -0.28145174	     -8.52161920	     20.82088695	      9.37473477	      0.00000000	    -16.33489465	     -3.24562153	    -13.68680031	    -55.94425992	     12.28623165	      1.38735644	      0.00000000	    -66.35683070	      4.77302532	     -1.55023989
      5.79500000	     41.34971744	     -3.20452471	     -3.05249034	      0.15987445	      0.67594337	     -0.24300888	    -43.70507875	      2.20402648	     -0.24529689	     -8.27443361	     21.07023183	      9.45712740	      0.00000000	    -15.85168969	     -3.20935485	    -13.76786272	    -54.52159054	     12.46158568	      1.55474085	      0.00000000	    -66.40183848	      4.71807695	     -1.40927026
      5.80000000	     41.32586778	     -3.31565751	     -3.23031855	      0.16449045	      0.67561685	     -0.24299865	    -44.24585836	      2.12817885	     -0.18216159	     -8.04166620	     21.36492272	      9.61635053	      0.00000000	    -15.47541268	     -3.18853479	    -13.89130850	    -52.99709951	     12.58511023	      1.70880786	      0.00000000	    -66.47461023	      4.62395190	     -1.25806167
      5.80500000	     41.31167910	     -3.43279792	     -3.38280666	      0.16909503	      0.67524120	     -0.24301289	    -44.79456476	      2.07184165	     -0.11827315	     -7.81437560	     21.64404881	      9.72810133	      0.00000000	    -15.13807888	     -3.18334278	    -13.99353500	    -51.40488101	     12.67488955	      1.84304241	      0.00000000	    -66.57206390	      4.55336765	     -1.09999872
      5.81000000	     41.31283406	     -3.56626687	     -3.52222655	      0.17367387	      0.67481973	     -0.24303802	    -45.34750014	      2.03334842	     -0.04634400	     -7.61101231	     21.92923392	      9.83960504	      0.00000000	    -14.85350116	     -3.20033393	    -14.09582955	    -49.73698445	     12.75935527	      1.96042838	      0.00000000	    -66.69847745	      4.50285023	     -0.94782401
      5.81500000	     41.18396772	     -3.69616082	     -3.50814433	      0.17826345	      0.67425683	     -0.24313163	    -45.75281922	      2.12549405	     -0.06534169	     -7.42915547	     22.15528733	      9.82657973	      0.00000000	    -14.38950030	     -3.27719675	    -14.01716864	    -48.08811555	     12.79406886	      2.09603738	      0.00000000	    -66.68934468	      4.55638057	     -0.78883430
      5.82000000	     41.16938706	     -3.81475799	     -3.66509748	      0.18289182	      0.67377391	     -0.24307167	    -46.28674825	      2.06293288	     -0.00508798	     -7.23784648	     22.49107606	     10.02224291	      0.00000000	    -14.18199265	     -3.30120279	    -14.17715465	    -46.25065847	     12.73491408	      2.35718602	      0.00000000	    -66.79035818	      4.45792842	     -0.64294969
      5.82500000	     41.15438731	     -3.95244660	     -3.74233102	      0.18751483	      0.67323001	     -0.24307932	    -46.82095918	      2.07571797	      0.03702573	     -7.05242747	     22.74581072	     10.09023581	      0.00000000	    -13.99112109	     -3.36081508	    -14.25958864	    -44.36700444	     12.69511731	      2.59762643	      0.00000000	    -66.89278237	      4.42268209	     -0.44218983
